<svg width="55" height="40" viewBox="0 0 130 95" fill="none" xmlns="http://www.w3.org/2000/svg">
<path fill-rule="evenodd" clip-rule="evenodd" d="M43.9995 87.001C43.8222 87.1764 43.688 87.3106 43.6037 87.3954C43.655 87.4252 43.7063 87.4549 43.7578 87.4845L43.9995 87.001ZM25.161 69.8268C29.8157 76.9192 36.0068 82.9797 43.5699 87.3758C44.3073 86.0901 50.9243 75.1422 65.5 69.5C72.4217 66.8206 80.0056 65.1547 87.275 63.5579L87.2751 63.5579L87.2754 63.5578C91.7076 62.5842 96.0229 61.6363 100 60.5C101.449 60.0859 102.817 59.7156 104.113 59.3645C112.208 57.172 117.55 55.7251 123 49C125.734 45.6263 128.057 39.6022 128.773 37.6382C123.346 16.1518 100.551 0 73.0874 0C56.1012 0 39.6419 7.26309 28.7554 17.4716C28.7554 17.4716 21.1589 23.8743 13.7786 35.3141C8.01226 44.2523 5.69311 49.7967 2.99536 59.6859C0.655465 68.2632 0 82.0681 0 82.0681L25.161 69.8268Z" fill="url(#paint0_linear)"/>
<path d="M55.326 47.348C55.326 52.5367 53.8497 56.4497 50.897 59.087C47.973 61.6957 43.8593 63 38.556 63H29.87V32.298H39.502C42.7127 32.298 45.4933 32.8713 47.844 34.018C50.2233 35.1647 52.058 36.856 53.348 39.092C54.6667 41.2993 55.326 44.0513 55.326 47.348ZM48.575 47.52C48.575 44.1087 47.8297 41.6147 46.339 40.038C44.8483 38.4327 42.684 37.63 39.846 37.63H36.363V57.625H39.158C45.436 57.625 48.575 54.2567 48.575 47.52ZM73.3531 45.757H85.5221V61.667C83.9167 62.2117 82.2397 62.6417 80.4911 62.957C78.7711 63.2723 76.8074 63.43 74.6001 63.43C70.0134 63.43 66.4874 62.0827 64.0221 59.388C61.5567 56.6933 60.3241 52.766 60.3241 47.606C60.3241 44.3953 60.9404 41.6147 62.1731 39.264C63.4344 36.9133 65.2547 35.093 67.6341 33.803C70.0134 32.513 72.9231 31.868 76.3631 31.868C77.9971 31.868 79.6024 32.04 81.1791 32.384C82.7557 32.728 84.1891 33.1867 85.4791 33.76L83.3291 38.963C82.3831 38.4757 81.3081 38.0743 80.1041 37.759C78.9001 37.4437 77.6387 37.286 76.3201 37.286C74.4281 37.286 72.7797 37.716 71.3751 38.576C69.9991 39.436 68.9241 40.6543 68.1501 42.231C67.4047 43.779 67.0321 45.6137 67.0321 47.735C67.0321 49.7417 67.3044 51.519 67.8491 53.067C68.3937 54.615 69.2537 55.8333 70.4291 56.722C71.6044 57.582 73.1381 58.012 75.0301 58.012C75.9474 58.012 76.7214 57.969 77.3521 57.883C78.0114 57.797 78.6134 57.6967 79.1581 57.582V51.175H73.3531V45.757ZM102.362 32.298C106.462 32.298 109.558 32.8713 111.65 34.018C113.743 35.1647 114.789 37.1857 114.789 40.081C114.789 41.8297 114.374 43.306 113.542 44.51C112.74 45.714 111.579 46.445 110.059 46.703V46.918C111.091 47.1187 112.023 47.477 112.854 47.993C113.686 48.509 114.345 49.2543 114.832 50.229C115.32 51.2037 115.563 52.4937 115.563 54.099C115.563 56.8797 114.56 59.0583 112.553 60.635C110.547 62.2117 107.795 63 104.297 63H92.8163V32.298H102.362ZM103.093 44.467C104.985 44.467 106.29 44.166 107.006 43.564C107.752 42.962 108.124 42.0877 108.124 40.941C108.124 39.7657 107.694 38.92 106.834 38.404C105.974 37.888 104.613 37.63 102.749 37.63H99.3093V44.467H103.093ZM99.3093 49.627V57.625H103.566C105.516 57.625 106.877 57.2523 107.651 56.507C108.425 55.733 108.812 54.7153 108.812 53.454C108.812 52.3073 108.411 51.39 107.608 50.702C106.834 49.9853 105.415 49.627 103.351 49.627H99.3093Z" fill="white"/>
<path fill-rule="evenodd" clip-rule="evenodd" d="M44.3079 86.1922L43.2888 87.2113C43.3823 87.2664 43.476 87.3212 43.5699 87.3758C43.6808 87.1826 43.9244 86.7711 44.3079 86.1922ZM125.5 57C127.039 55.4447 128.719 53.0418 129.813 51.3767C127.449 75.7032 103.012 95 73.0875 95C61.7664 95 51.8672 92.1906 43.6037 87.3954C44.4145 86.5806 49.8172 81.208 54.0001 78.5C61.8284 73.4319 67.2464 71.6567 76.5001 70.5C78.7524 70.2185 81.3074 70.0747 84.0767 69.9189C91.144 69.5213 99.6075 69.0452 108 66C109.237 65.5511 110.405 65.1522 111.519 64.772C116.908 62.9318 121.021 61.5276 125.5 57Z" fill="url(#paint1_linear)"/>
<defs>
<linearGradient id="paint0_linear" x1="29.5" y1="8" x2="108" y2="85" gradientUnits="userSpaceOnUse">
<stop stop-color="#0163FF"/>
<stop offset="1" stop-color="#0028E8"/>
</linearGradient>
<linearGradient id="paint1_linear" x1="43" y1="87" x2="130" y2="55" gradientUnits="userSpaceOnUse">
<stop stop-color="#0145F3"/>
<stop offset="1" stop-color="#57B642"/>
</linearGradient>
</defs>
</svg>
